<?xml version="1.0" encoding="UTF-8"?>
<svg xmlns="http://www.w3.org/2000/svg" xmlns:xlink="http://www.w3.org/1999/xlink" viewBox="0 0 50 50" width="50px" height="50px">
<g id="surface8932496">
<path style=" stroke:none;fill-rule:nonzero;fill:rgb(13.333334%,13.333334%,22.352941%);fill-opacity:1;" d="M 14 3.992188 C 8.488281 3.992188 4 8.480469 4 13.992188 L 4 35.992188 C 4 41.5 8.488281 45.992188 14 45.992188 L 36 45.992188 C 41.511719 45.992188 46 41.5 46 35.992188 L 46 13.992188 C 46 8.480469 41.511719 3.992188 36 3.992188 Z M 18.003906 12.035156 C 18.632812 12.058594 19.210938 12.414062 19.558594 12.957031 C 19.953125 13.574219 20.570312 14.535156 21.367188 15.785156 C 22.097656 16.925781 22.148438 18.398438 21.496094 19.589844 L 20.035156 21.675781 C 19.636719 22.238281 19.558594 22.960938 19.824219 23.597656 C 20.238281 24.585938 21.039062 26.105469 22.46875 27.535156 C 23.894531 28.960938 25.414062 29.761719 26.40625 30.175781 C 27.039062 30.441406 27.761719 30.363281 28.328125 29.96875 L 30.410156 28.503906 C 31.601562 27.851562 33.074219 27.902344 34.214844 28.632812 C 35.464844 29.429688 36.425781 30.046875 37.042969 30.441406 C 37.585938 30.789062 37.941406 31.367188 37.96875 31.996094 C 38.121094 35.558594 35.359375 37.003906 34.558594 37.003906 C 34 37.003906 27.316406 37.761719 19.777344 30.222656 C 12.238281 22.683594 13 16 13 15.445312 C 13 14.640625 14.441406 11.878906 18.007812 12.035156 Z M 18.003906 12.035156 "/>
</g>
</svg>
